<?xml version="1.0" encoding="UTF-8"?>
<svg width="16px" height="16px" viewBox="0 0 16 16" version="1.1" xmlns="http://www.w3.org/2000/svg" xmlns:xlink="http://www.w3.org/1999/xlink">
    <!-- Generator: Sketch 43.2 (39069) - http://www.bohemiancoding.com/sketch -->
    <title>ion-ios-search - Ionicons</title>
    <desc>Created with Sketch.</desc>
    <defs></defs>
    <g id="Page-1" stroke="none" stroke-width="1" fill="none" fill-rule="evenodd">
        <path d="M16,15.0416667 L15.0416667,16 L10.3333333,11.2916667 C9.19443875,12.2083379 7.86111875,12.6666667 6.33333333,12.6666667 C4.58332458,12.6666667 3.09028396,12.0486173 1.85416667,10.8125 C0.618049375,9.57638271 0,8.08334208 0,6.33333333 C0,4.58332458 0.618049375,3.09028396 1.85416667,1.85416667 C3.09028396,0.618049375 4.58332458,0 6.33333333,0 C8.08334208,0 9.57638271,0.618049375 10.8125,1.85416667 C12.0486173,3.09028396 12.6666667,4.58332458 12.6666667,6.33333333 C12.6666667,7.83334083 12.2083379,9.15277208 11.2916667,10.2916667 L16,15.0416667 Z M2.33333333,10.375 C3.41667208,11.4583388 4.74999208,12 6.33333333,12 C7.88889667,12 9.22221667,11.44445 10.3333333,10.3333333 C11.44445,9.22221667 12,7.88889667 12,6.33333333 C12,4.77777 11.44445,3.44445 10.3333333,2.33333333 C9.22221667,1.22221667 7.88889667,0.666666667 6.33333333,0.666666667 C4.77777,0.666666667 3.44445,1.22221667 2.33333333,2.33333333 C1.22221667,3.44445 0.666666667,4.77777 0.666666667,6.33333333 C0.666666667,7.91667458 1.22221667,9.26388333 2.33333333,10.375 Z" id="ion-ios-search---Ionicons" fill="#4A4A4A"></path>
    </g>
</svg>